<svg width="181" height="86" fill="none" xmlns="http://www.w3.org/2000/svg"><g filter="url(#filter0_d_33_6)"><path d="M174.933 75.027a136.577 136.577 0 00-6.322-21.097l6.21-15.591a1.69 1.69 0 00-.781-2.131 1.71 1.71 0 00-.799-.2l-7.077.215a1.716 1.716 0 00-1.53 1.075l-.877 2.208v-1.494a1.708 1.708 0 00-1.718-1.693l-6.551.041a1.706 1.706 0 00-1.693 1.703v1.193l-8.035-3.85a1.764 1.764 0 00-.735-.167h-.091l-9.02.897a1.702 1.702 0 00-1.529 1.703v5.827c0 5.002.036 10.106.071 15.22-1.086-4.028-2.182-8.04-3.253-11.982-.775-2.842-1.548-5.682-2.319-8.52.199.041.403.062.606.062a3.22 3.22 0 001.586-.418l6.404-3.636a3.219 3.219 0 001.621-2.804l-.107-20.904a3.194 3.194 0 00-1.713-2.82l-6.338-3.339a3.21 3.21 0 00-3.084.046l-6.118 3.482v-.326a2.22 2.22 0 00-.172-.843 2.217 2.217 0 00-1.201-1.187 2.203 2.203 0 00-.845-.162l-14.664.183a2.183 2.183 0 00-2.166 2.157v.22l-6.4-3.06c-.4-.193-.84-.292-1.284-.29a2.865 2.865 0 00-.296 0l-6.342.627a2.988 2.988 0 00-1.698.744 2.447 2.447 0 00-1.713-.699h-.056l-4.502.138a2.473 2.473 0 00-2.223 1.555l-.806 2.04-.805-2.04a2.463 2.463 0 00-2.218-1.555l-4.482-.138h-.076a2.462 2.462 0 00-2.463 2.443l-6.118-2.927c-.3-.144-.63-.219-.963-.22h-.22l-7.235.715a2.223 2.223 0 00-2.008 2.233l-6.41-3.38a2.406 2.406 0 00-2.314.035l-7.189 4.079a2.402 2.402 0 00-1.224 2.106l.118 21.852a2.411 2.411 0 001.28 2.116l3.201 1.692-3.9-.066a1.713 1.713 0 00-1.397.73 1.698 1.698 0 00-1.234-.51l-6.25.04a1.688 1.688 0 00-1.02-.352l-7.077.215a1.718 1.718 0 00-1.53 1.075l-.877 2.208v-1.494a1.708 1.708 0 00-1.718-1.693l-6.551.041A1.708 1.708 0 005 38.058v38.688a1.718 1.718 0 00.51 1.228 1.682 1.682 0 001.611.418 314.022 314.022 0 017.617-1.906 1.687 1.687 0 001.305-1.79c-.102-1.28-.229-2.58-.356-3.85.402 1.148.79 2.27 1.167 3.355a1.709 1.709 0 001.611 1.142h.179a535.92 535.92 0 017.194-.734c.188-.02.372-.07.545-.148h.168l.148-.03c2.509-.51 3.799-.72 6.271-1.117a1.684 1.684 0 001.127-.729c.274.18.595.278.923.28h.178c4.528-.479 8.928-.795 12.635-1.02a1.689 1.689 0 001.274-.723c.288.212.637.326.994.326h.062a798.8 798.8 0 0113.337-.382 1.708 1.708 0 001.668-1.734c0-.989-.031-1.754-.046-2.493 0-1.045-.036-2.04-.062-3.487a1.692 1.692 0 00-1.646-1.678l-5.043-.163.123-23.535a1.626 1.626 0 00-.194-.795 2.228 2.228 0 001.631-2.141v-1.586l.714 2.417a2.249 2.249 0 002.141 1.596h.051l4.956-.189a2.208 2.208 0 001.729-.928 2.208 2.208 0 00.326-1.932l-2.707-9.178 1.652-.77a2.237 2.237 0 001.28-2.039l-.067-7.296 2.87 7.225-.05 12.39a2.432 2.432 0 00.718 1.753 2.442 2.442 0 001.75.73h.086l3.385-.118-4.588 2.595a1.708 1.708 0 00-.857 1.494l.112 13.69a1.698 1.698 0 001.193 1.605l6.328 1.984-5.818-.077a1.708 1.708 0 00-1.703 1.703v6.022a1.703 1.703 0 001.02 1.529 224.191 224.191 0 018.917 4.278c.24.122.506.187.775.188.261 0 .52-.06.755-.173 2.977-1.474 5.511-2.641 7.882-3.63v.586a1.713 1.713 0 001.728 1.688h1.346c1.856 0 3.177-.046 5.333-.067a1.736 1.736 0 001.209-.51c.314-.322.489-.757.484-1.208a952.615 952.615 0 01-.071-9.208h1.188c0 2.896 0 5.98.035 9.371a1.704 1.704 0 001.714 1.688h6.663c.276-.004.547-.073.791-.204.104.021.209.035.316.04 2.661.062 4.078.108 6.837.225h.081a1.71 1.71 0 001.632-1.218c.168-.571.29-.984.423-1.423 1.468.026 2.59.046 4.16.087.158.57.296 1.08.51 1.815a1.714 1.714 0 001.53 1.249c2.748.21 4.14.337 6.76.668.212.139.453.227.704.26 2.631.331 3.987.535 6.465.913h.26a1.716 1.716 0 001.219-.51 1.727 1.727 0 00.484-1.229c0-.938-.046-1.876-.072-2.814 0-.556-.025-1.117-.04-1.683.51 1.922.979 3.906 1.483 5.986a1.706 1.706 0 001.448 1.29l.322.04c2.549.306 3.936.48 6.521.75h.382c.245.2.542.328.856.367 2.728.352 4.079.51 6.674.744h.153a1.706 1.706 0 001.209-.51 1.681 1.681 0 00.51-1.208v-2.233c.188.892.372 1.78.566 2.656a1.69 1.69 0 001.356 1.306c2.977.545 4.441.775 7.229 1.075h.189a1.693 1.693 0 001.326-.637 1.693 1.693 0 00.239-1.438zM19.786 53.93l3.665-9.178c0 6.537.082 12.905.465 19.319l-.852-2.08c-1.08-2.652-2.197-5.37-3.278-8.061zm23.07-38.953l.714-.474.128.076v1.071a2.417 2.417 0 002.36 2.407l4.375.086c.124 0 .249-.01.372-.03l.026 6.628a2.342 2.342 0 00-.332-.026l-4.425.056a2.417 2.417 0 00-2.376 2.412v.423l-.714.474-.128-.076V14.977zm7.23 21.159a1.708 1.708 0 00-1.703 1.703v24.014a1.637 1.637 0 00-.734-.21l-5.053-.178c.024-5.75.055-11.505.092-17.263l.03-5.726c.199.053.403.08.607.082.419-.002.83-.11 1.194-.316l6.352-3.636v.378c.001.399.11.79.316 1.131l-1.1.02zm79.807-8.57a.092.092 0 01-.009.04.08.08 0 01-.027.03l-.632.419h-.132a.083.083 0 01-.041-.071V15.022a.083.083 0 01.041-.071l.632-.418a.062.062 0 01.046 0h.035l.046.03.041 13.001zm-36.72 9.34c-.296.314-.462.73-.463 1.162v.913l-3.029-1.749h2.142a2.95 2.95 0 001.35-.331v.005zm-11.435-2.3l.071-12.19 3.87-9.718.087 21.562c.002.26.04.519.112.77l-1.744-1.02-2.55 1.453c.102-.274.154-.564.154-.857zM92.7 49.647v1.739l-6.277-1.867 6.276.128zm12.939-13.282a1.706 1.706 0 00-1.687 1.703V49.53l-1.244.025-.041-11.533a1.702 1.702 0 00-.51-1.218 1.706 1.706 0 00-1.198-.48l-6.557.041a1.65 1.65 0 00-.612.123 2.972 2.972 0 001.02-2.239v-6.332a2.3 2.3 0 00.332 0 3 3 0 001.213-.255l6.822-3.033a2.982 2.982 0 001.769-2.753l-.061-7.031h2.661v20.18c.001.477.158.941.449 1.32l-2.356.02zm14.939.265l-.311 1.158c-.632 2.38-1.259 4.772-1.886 7.138-1.402 5.333-2.835 10.788-4.38 16.198-.036-5.068-.051-10.136-.066-15.092 0-2.675-.009-5.353-.026-8.035a1.69 1.69 0 00-.239-.857h.979a2.196 2.196 0 002.161-2.202l-.091-20.134h2.834l.296-.026.087 17.141a3.218 3.218 0 001.713 2.82l3.599 1.902-4.67-.01z" fill="#fff"/><path d="M51.345 26.79v4.956a.852.852 0 01-.428.74l-7.194 4.078a.847.847 0 01-.81 0l-7.17-3.788a.852.852 0 01-.453-.744l-.112-21.852a.852.852 0 01.428-.74L42.8 5.361a.846.846 0 01.81 0l7.17 3.789a.862.862 0 01.453.744l.03 5.522a.846.846 0 01-.861.851l-4.329-.087a.846.846 0 01-.83-.846v-1.468a.836.836 0 00-.409-.72l-.856-.509a.846.846 0 00-.908 0l-1.412.938a.857.857 0 00-.377.709V28.08a.841.841 0 00.402.72l.862.51a.846.846 0 00.908 0l1.412-.939a.856.856 0 00.377-.709v-.81a.846.846 0 01.836-.847l4.395-.056a.846.846 0 01.872.841z" fill="url(#paint0_linear_33_6)"/><path d="M59.029 26.265a.67.67 0 00-.683.668v7.75a.663.663 0 01-.668.668h-4.589a.668.668 0 01-.668-.663L52.31 7.339a.673.673 0 01.602-.667l7.234-.714c.123-.01.246.01.357.06l7.485 3.57a.663.663 0 01.377.596l.112 11.9a.673.673 0 01-.387.612l-2.34 1.101a.663.663 0 00-.357.79l2.921 9.907a.663.663 0 01-.612.857l-4.925.183a.668.668 0 01-.668-.479l-2.467-8.326a.667.667 0 00-.612-.464zm.04-6.409l.847.03a.668.668 0 00.423-.137l1.785-1.34a.674.674 0 00.265-.536v-3.742a.662.662 0 00-.276-.54l-1.233-.893a.642.642 0 00-.48-.122l-1.392.183a.668.668 0 00-.58.663v5.766a.673.673 0 00.642.668z" fill="url(#paint1_linear_33_6)"/><path d="M74.355 21.554l-5.43-13.653a.907.907 0 01.872-1.245l4.482.138a.918.918 0 01.82.571l1.413 3.57a.907.907 0 001.687 0l1.413-3.57a.902.902 0 01.816-.57l4.481-.139a.907.907 0 01.872 1.245l-5.47 13.735a.927.927 0 00-.062.331l-.076 12.313a.902.902 0 01-.877.903l-3.993.137a.913.913 0 01-.938-.912l.056-12.517a.84.84 0 00-.066-.337z" fill="url(#paint2_linear_33_6)"/><path d="M88.499 6.605l6.347-.627c.257-.025.517.02.75.133l6.872 3.288a1.425 1.425 0 01.806 1.27l.102 10.926a1.428 1.428 0 01-.841 1.31l-6.817 3.034a1.422 1.422 0 01-.74.112h-.157a1.423 1.423 0 00-1.58 1.412v6.486a1.412 1.412 0 01-1.418 1.417h-3.06a1.418 1.418 0 01-1.422-1.412l-.107-25.916A1.417 1.417 0 0188.5 6.605zm5.873 13.114a1.444 1.444 0 001.219-.24l1.121-.846a1.412 1.412 0 00.566-1.132v-2.988a1.422 1.422 0 00-.586-1.152l-.678-.51a1.397 1.397 0 00-1.02-.255l-.444.056a1.417 1.417 0 00-1.233 1.407v4.263a1.423 1.423 0 001.06 1.397h-.005z" fill="url(#paint3_linear_33_6)"/><path d="M108.469 12.963l-3.671.026a.632.632 0 01-.593-.396.632.632 0 01-.044-.247l.076-4.782a.638.638 0 01.627-.622l14.664-.184a.63.63 0 01.637.632v4.88a.634.634 0 01-.627.632l-3.758.03a.63.63 0 00-.627.633l.092 21.067a.63.63 0 01-.617.632l-4.879.076a.627.627 0 01-.643-.632V13.59a.63.63 0 00-.187-.447.626.626 0 00-.45-.18z" fill="url(#paint4_linear_33_6)"/><path d="M136.72 32.715l-6.414 3.64a1.642 1.642 0 01-1.581 0L122.367 33a1.66 1.66 0 01-.877-1.448l-.107-20.904a1.642 1.642 0 01.831-1.437l6.404-3.64a1.653 1.653 0 011.586 0l6.353 3.354a1.64 1.64 0 01.876 1.448l.113 20.904a1.647 1.647 0 01-.826 1.438zm-8.454-3.681l.041.025a1.638 1.638 0 001.764-.036l.632-.418a1.647 1.647 0 00.735-1.371V14.319a1.633 1.633 0 00-.791-1.407l-.035-.025a1.649 1.649 0 00-1.77.035l-.632.418a1.644 1.644 0 00-.734 1.372v12.915a1.652 1.652 0 00.79 1.407z" fill="url(#paint5_linear_33_6)"/><path d="M43.32 36.054a.234.234 0 01-.102 0l-7.168-3.788a.22.22 0 01-.117-.194l-.118-21.847a.224.224 0 01.113-.193l7.194-4.08a.276.276 0 01.112-.025.178.178 0 01.102.026l7.168 3.788a.218.218 0 01.117.194l.031 5.521a.24.24 0 01-.061.158.219.219 0 01-.158.067l-4.334-.087a.224.224 0 01-.214-.224V13.9a1.473 1.473 0 00-.709-1.254l-.856-.51a1.495 1.495 0 00-.765-.214 1.5 1.5 0 00-.816.245l-1.412.938a1.474 1.474 0 00-.658 1.229V28.08a1.473 1.473 0 00.709 1.255l.856.51c.231.138.496.212.765.213a1.5 1.5 0 00.816-.244l1.412-.938a1.483 1.483 0 00.658-1.23v-.81a.22.22 0 01.22-.219l4.389-.056a.225.225 0 01.23.22v4.95a.224.224 0 01-.113.194l-7.194 4.078a.274.274 0 01-.097.051zm19.446-1.126a.046.046 0 01-.04-.03l-2.473-8.332a1.27 1.27 0 00-1.214-.923 1.295 1.295 0 00-1.31 1.29v7.75a.046.046 0 01-.046.046h-4.589a.045.045 0 01-.029-.015.045.045 0 01-.011-.03L52.94 7.34a.046.046 0 01.036-.046l7.24-.714 7.505 3.569a.036.036 0 010 .036l.112 11.9a.047.047 0 010 .04l-2.34 1.102a1.29 1.29 0 00-.694 1.53l2.927 9.9a.06.06 0 010 .041.046.046 0 01-.036 0l-4.925.23zm-2.274-22.984h-.173l-1.397.188a1.29 1.29 0 00-1.122 1.28v5.766a1.285 1.285 0 001.25 1.29l.887.031c.28 0 .554-.092.78-.26l1.784-1.34a1.312 1.312 0 00.51-1.02v-3.743a1.3 1.3 0 00-.51-1.05l-1.234-.893a1.295 1.295 0 00-.775-.25zm14.781 22.749a.282.282 0 01-.26-.173.28.28 0 01-.02-.107l.05-12.517a1.484 1.484 0 00-.106-.576l-5.43-13.65a.286.286 0 01.03-.265.274.274 0 01.235-.128l4.492.138a.296.296 0 01.255.178l1.412 3.57a1.529 1.529 0 001.422.963 1.53 1.53 0 001.428-.969l1.412-3.569a.29.29 0 01.255-.178l4.482-.138a.275.275 0 01.24.128.26.26 0 01.03.265L79.73 21.4a1.475 1.475 0 00-.108.556l-.071 12.313a.29.29 0 01-.276.285l-4.002.138zm13.48.036a.806.806 0 01-.8-.796l-.107-25.91a.795.795 0 01.719-.796l6.347-.627h.077a.8.8 0 01.341.082l6.873 3.288a.781.781 0 01.449.71l.102 10.925a.783.783 0 01-.469.734l-6.822 3.034a.802.802 0 01-.326.071h-.245a1.723 1.723 0 00-.23 0 2.04 2.04 0 00-2.039 2.04v6.485a.795.795 0 01-.795.795l-3.075-.035zm6.435-22.755a2.39 2.39 0 00-.27 0l-.444.061a2.039 2.039 0 00-1.78 2.04v4.262a2.04 2.04 0 002.04 2.045 2.04 2.04 0 001.229-.408l1.121-.847a2.04 2.04 0 00.816-1.631v-2.988a2.041 2.041 0 00-.846-1.657l-.678-.51a2.039 2.039 0 00-1.188-.367zm14.546 22.745V13.59a1.251 1.251 0 00-1.255-1.254l-3.681.03.072-4.792 14.668-.188v4.884l-3.763.036a1.258 1.258 0 00-1.249 1.264l.097 21.062-4.889.087zm19.771 1.223a1.027 1.027 0 01-.479-.117l-6.368-3.36a1.023 1.023 0 01-.51-.918l-.112-20.904c-.001-.18.045-.358.134-.515.09-.156.22-.287.376-.377l6.404-3.635a1.022 1.022 0 01.984-.015l6.358 3.36a1.024 1.024 0 01.545.897l.107 20.904a1.012 1.012 0 01-.51.897l-6.403 3.635c-.159.097-.34.148-.526.148zm.266-23.922a2.26 2.26 0 00-1.26.383l-.627.417a2.255 2.255 0 00-1.02 1.892v12.915a2.285 2.285 0 001.092 1.942h.04a2.24 2.24 0 002.437-.046l.633-.418a2.251 2.251 0 001.019-1.891V14.32a2.284 2.284 0 00-1.091-1.943h-.035a2.318 2.318 0 00-1.163-.357h-.025z" fill="#fff"/><path d="M36.244 31.99l-.112-21.74 7.102-4.032 7.077 3.737.03 5.374-4.16-.097V13.85a1.784 1.784 0 00-.856-1.53l-.857-.51a1.8 1.8 0 00-1.917.036l-1.412.939a1.78 1.78 0 00-.796 1.488V28.08a1.785 1.785 0 00.857 1.53l.856.51a1.8 1.8 0 001.917-.036l1.413-.938a1.78 1.78 0 00.795-1.489v-.698l4.211-.057v4.808l-7.102 4.033-7.046-3.752zm24.309-5.51a1.6 1.6 0 00-2.68-.675 1.625 1.625 0 00-.475 1.153v7.48h-4.033l-.113-26.834 6.904-.678 7.275 3.477.113 11.559-2.188 1.02a1.59 1.59 0 00-.82 1.886l2.824 9.575-4.37.163-2.437-8.127zm-.06-14.848a1.53 1.53 0 00-.215 0l-1.397.184a1.612 1.612 0 00-1.392 1.59v5.767a1.601 1.601 0 001.53 1.606h.892c.35 0 .692-.112.974-.321l1.784-1.341a1.618 1.618 0 00.638-1.285V14.09a1.611 1.611 0 00-.663-1.3l-1.234-.893a1.566 1.566 0 00-.918-.265zM75.36 21.896c0-.236-.046-.47-.133-.689L69.812 7.584l4.42.138 1.408 3.528a1.83 1.83 0 001.713 1.162 1.84 1.84 0 001.718-1.162l1.403-3.528 4.42-.138-5.456 13.695a1.901 1.901 0 00-.127.673l-.077 12.287-3.94.133.066-12.476zm13.394 12.517a.51.51 0 01-.485-.48l-.107-25.91a.474.474 0 01.434-.485l6.347-.627h.046a.51.51 0 01.21.046l6.867 3.289a.507.507 0 01.275.433l.102 10.926a.47.47 0 01-.285.444l-6.822 3.033a.434.434 0 01-.199.041h-.474a2.361 2.361 0 00-2.356 2.36v6.486a.51.51 0 01-.51.48l-3.043-.036zm6.434-22.75h-.311l-.444.061a2.36 2.36 0 00-2.039 2.335v4.263a2.356 2.356 0 001.754 2.279c.197.055.402.082.607.081a2.381 2.381 0 001.417-.474l1.122-.846a2.376 2.376 0 00.938-1.882v-2.987a2.364 2.364 0 00-.974-1.912l-.678-.51a2.356 2.356 0 00-1.392-.408zm14.857 1.927a1.575 1.575 0 00-1.571-1.565l-3.365.026.062-4.17 14.051-.18v4.258l-3.457.036a1.57 1.57 0 00-1.555 1.575l.092 20.756-4.262.071.005-20.807zm19.461 22.036a.744.744 0 01-.332-.081l-6.357-3.36a.702.702 0 01-.378-.622l-.112-20.904a.721.721 0 01.362-.622l6.404-3.635a.707.707 0 01.683-.01l6.353 3.36a.701.701 0 01.377.621l.112 20.904a.703.703 0 01-.362.617l-6.403 3.64a.68.68 0 01-.347.092zm.265-23.922c-.509 0-1.007.149-1.433.428l-.627.424a2.574 2.574 0 00-1.157 2.151v12.915a2.595 2.595 0 001.239 2.207l.041.026c.405.246.871.376 1.346.377a2.549 2.549 0 001.427-.433l.632-.418a2.555 2.555 0 001.153-2.152v-12.91a2.604 2.604 0 00-1.239-2.208l-.036-.025a2.618 2.618 0 00-1.321-.377l-.025-.005z" fill="#08C6F9"/><path d="M34.327 37.364l6.69.113a.138.138 0 01.137.137c-.048 8.308-.09 16.613-.128 24.917a.138.138 0 00.138.137l6.424.225a.143.143 0 01.133.137l.117 6.761a.137.137 0 01-.127.143c-4.237.28-8.47.596-12.696 1.02a.143.143 0 01-.153-.128c-.841-11.115-.678-22.199-.678-33.344a.143.143 0 01.143-.117z" fill="url(#paint6_linear_33_6)"/><path d="M50.086 37.364l6.69.113a.138.138 0 01.137.137c-.048 8.308-.092 16.615-.132 24.922a.143.143 0 00.137.143l6.424.203a.138.138 0 01.138.138c.036 2.488.061 3.57.102 5.986a.137.137 0 01-.133.143c-4.456.091-8.91.219-13.363.382a.137.137 0 01-.143-.138V37.507a.143.143 0 01.143-.142z" fill="url(#paint7_linear_33_6)"/><path d="M74.946 40.725l9.178-5.211 8.963 5.175c0 2.712.025 4.18.046 6.939a.147.147 0 01-.148.143l-6.552-.128a.148.148 0 01-.138-.142v-2.315l-2.279-1.219-2.375 1.57.606 4.054 10.651 3.166a.148.148 0 01.102.133c.056 4.374.092 8.754.189 13.128a.142.142 0 01-.087.133c-3.059 1.239-5.996 2.615-8.943 4.079a.128.128 0 01-.122 0c-2.967-1.53-5.95-2.932-8.984-4.309a.143.143 0 01-.081-.127v-6.021a.139.139 0 01.088-.13.137.137 0 01.055-.008l6.628.087a.137.137 0 01.137.137v1.718a.133.133 0 00.067.118c.948.632 1.453.979 2.4 1.56a.153.153 0 00.149 0 52.19 52.19 0 001.932-1.142l-.51-4.043-10.86-3.406a.138.138 0 01-.096-.133l-.108-13.684a.132.132 0 01.092-.122z" fill="url(#paint8_linear_33_6)"/><path d="M101.199 57.85c0 3.57 0 7.087.071 10.636a.123.123 0 01-.009.053.137.137 0 01-.075.076.132.132 0 01-.054.009l-6.689.081a.143.143 0 01-.142-.138c-.072-10.273-.031-20.546-.031-30.815a.148.148 0 01.143-.143l6.551-.04a.14.14 0 01.099.04.14.14 0 01.044.097l.046 12.981a.142.142 0 00.143.143l4.078-.087a.136.136 0 00.138-.138V37.752a.149.149 0 01.043-.1.149.149 0 01.1-.043l6.551-.04a.14.14 0 01.143.137c.041 10.3.031 20.598.168 30.897a.141.141 0 01-.01.054.141.141 0 01-.132.084h-6.684a.135.135 0 01-.132-.084.142.142 0 01-.011-.054c-.024-3.6-.036-7.199-.036-10.798a.144.144 0 00-.043-.098.145.145 0 00-.1-.04l-4.033.04a.144.144 0 00-.099.042.125.125 0 00-.029.047.126.126 0 00-.009.054z" fill="url(#paint9_linear_33_6)"/><path d="M128.624 69.215a222.54 222.54 0 00-.785-2.835.145.145 0 00-.133-.102 370.37 370.37 0 00-6.296-.132.148.148 0 00-.138.102c-.286.963-.444 1.483-.734 2.457a.143.143 0 01-.138.102 285.402 285.402 0 00-6.873-.23.143.143 0 01-.134-.115.135.135 0 01.002-.063c3.115-10.08 5.664-20.333 8.382-30.525h5.45c2.891 10.661 5.817 21.307 8.667 31.978a.138.138 0 01-.153.173c-2.778-.351-4.236-.484-6.979-.693a.144.144 0 01-.138-.117zm-5.333-9.59l2.468-.056a.144.144 0 00.059-.018.136.136 0 00.047-.041.136.136 0 00.026-.057.132.132 0 000-.063l-1.234-4.589a.14.14 0 00-.047-.08.14.14 0 00-.088-.03.135.135 0 00-.087.03.136.136 0 00-.048.08c-.469 1.76-.744 2.815-1.234 4.666a.132.132 0 00.033.11.138.138 0 00.105.048z" fill="url(#paint10_linear_33_6)"/><path d="M144.342 60.354l-1.575.224c0 3.482.117 6.97.188 10.457a.138.138 0 01-.048.108.14.14 0 01-.115.03 196.07 196.07 0 00-6.505-.918.144.144 0 01-.087-.046.146.146 0 01-.036-.092c-.168-10.865-.178-21.735-.224-32.605 0-.034.013-.068.037-.093a.136.136 0 01.09-.044l8.938-.882a.135.135 0 01.077 0l8.988 4.308c.024.01.044.028.059.05a.145.145 0 01.023.072c.041 4.759.085 9.517.132 14.276a.143.143 0 01-.081.128l-3.498 1.641a.155.155 0 00-.076.168c1.529 5.206 2.763 10.376 3.87 15.694a.144.144 0 01-.004.065.138.138 0 01-.085.094.142.142 0 01-.064.009c-2.677-.28-4.079-.454-6.817-.79a.145.145 0 01-.123-.102c-.953-3.936-1.911-7.862-3.064-11.752zm.429-8.04h.117l2.473-2.387v-4.079l-2.116-1.85-.872.117.398 8.198z" fill="url(#paint11_linear_33_6)"/><path d="M166.215 37.471l7.021-.214a.142.142 0 01.138.189l-6.424 16.122a.161.161 0 000 .101 134.257 134.257 0 016.459 21.384.143.143 0 01-.088.159.145.145 0 01-.065.009c-2.819-.301-4.292-.54-7.137-1.056a.159.159 0 01-.113-.107c-.984-4.44-1.703-9.075-3.472-13.297a.143.143 0 00-.27.056c0 4.39.071 8.775.112 13.165 0 .02-.004.039-.011.056a.147.147 0 01-.034.047.14.14 0 01-.108.035c-2.615-.235-3.992-.398-6.628-.735a.135.135 0 01-.087-.045.137.137 0 01-.035-.092c-.148-11.834-.143-23.663-.143-35.496 0-.037.014-.073.04-.1a.145.145 0 01.098-.043l6.551-.04a.14.14 0 01.143.137c0 2.944.014 5.889.041 8.836.003.03.015.06.036.083a.144.144 0 00.17.032.142.142 0 00.064-.064c1.2-3.012 2.39-6.022 3.569-9.03a.154.154 0 01.173-.092z" fill="url(#paint12_linear_33_6)"/><path d="M7.35 37.721l5.18-.056a.714.714 0 01.715.709l.04 8.157a.244.244 0 00.255.25.255.255 0 00.235-.158l3.421-8.611a.723.723 0 01.642-.449l5.522-.168a.714.714 0 01.689.979L18.017 53.51a.246.246 0 000 .189c1.142 2.876 2.335 5.777 3.487 8.586 1.305 3.181 2.651 6.45 3.931 9.687l.25.627-.673.067c-2.269.219-3.712.372-6.19.632l-.402.046-.133-.383c-1.223-3.533-2.753-7.923-4.471-12.236a.25.25 0 00-.235-.158.25.25 0 00-.26.25 90.81 90.81 0 00.622 9.411v.051c.128 1.25.26 2.55.367 3.804l.036.433-.428.102c-2.468.592-4.023.98-6.628 1.667l-.638.164V38.415a.714.714 0 01.699-.694z" fill="url(#paint13_linear_33_6)"/><path d="M26.297 71.917c-1.153-10.707-1.148-21.103-1.143-32.09v-1.392a.714.714 0 01.71-.714l5.18-.035a.719.719 0 01.718.709v3.227c0 9.575.046 19.476.913 29.235l.046.474-.47.076a161.35 161.35 0 00-5.363.954l-.546.107-.045-.55z" fill="url(#paint14_linear_33_6)"/><path d="M7.86 38.227l4.165-.026a.713.713 0 01.72.709l.035 7.648a.755.755 0 00.765.76.764.764 0 00.709-.48l3.298-8.3a.724.724 0 01.643-.45l4.41-.132a.708.708 0 01.683.974l-5.74 14.419a.73.73 0 000 .566c1.146 2.875 2.34 5.781 3.492 8.59 1.152 2.81 2.401 5.849 3.569 8.806a.72.72 0 01-.597.973c-1.606.159-2.875.291-4.685.48a.714.714 0 01-.75-.47c-1.27-3.66-2.697-7.724-4.293-11.726a.765.765 0 00-.709-.48.76.76 0 00-.77.76c.047 3.159.26 6.312.638 9.448.107 1.06.22 2.152.316 3.227a.714.714 0 01-.546.755c-1.85.444-3.222.785-5.164 1.29a.72.72 0 01-.898-.688V38.94a.714.714 0 01.71-.713zm19.686 33.486a.713.713 0 01-.851-.627c-1.066-10.426-1.06-20.562-1.056-31.259v-.887a.714.714 0 01.709-.714l4.16-.025a.708.708 0 01.72.709v2.717c0 9.371.045 19.053.861 28.623a.714.714 0 01-.596.76c-1.433.24-2.52.433-3.947.703zm8.637-1.483a.713.713 0 01-.785-.663c-.633-9.147-.612-18.431-.597-27.425V38.72a.709.709 0 01.724-.709l4.288.066a.714.714 0 01.698.72v5.2c-.037 5.945-.068 11.893-.092 17.845a1.494 1.494 0 001.433 1.483l4.589.163a.709.709 0 01.693.694c0 1.346.056 3.426.077 4.492a.714.714 0 01-.663.724 302.3 302.3 0 00-10.365.83zm15.097-1.367a.707.707 0 01-.735-.714V38.726a.714.714 0 01.724-.714l4.288.066a.714.714 0 01.699.72l-.128 23.738a.77.77 0 00.745.765l5.282.168a.72.72 0 01.693.703c0 .877.026 1.591.04 2.336 0 .418 0 .846.026 1.315a.719.719 0 01-.698.73c-3.64.08-7.311.183-10.936.31zm32.508.53a226.527 226.527 0 00-7.77-3.732.718.718 0 01-.418-.652v-4.033a.714.714 0 01.724-.714l4.231.056a.714.714 0 01.704.714v.158a1.475 1.475 0 00.658 1.229l.076.05c.73.51 1.214.806 2.04 1.31a.801.801 0 00.402.113.816.816 0 00.378-.097c.75-.423 1.137-.657 1.947-1.152l.347-.21-.51-4.389a.714.714 0 00-.51-.591l-9.972-3.126a.724.724 0 01-.51-.678l-.097-12.109a.72.72 0 01.362-.627l7.897-4.487a.72.72 0 01.71 0l7.647 4.416a.72.72 0 01.357.611l.03 4.946a.718.718 0 01-.729.719l-4.15-.082a.714.714 0 01-.698-.713v-1.086a.714.714 0 00-.378-.633l-2.187-1.172a.718.718 0 00-.73.035l-2.283 1.53a.72.72 0 00-.311.699l.586 3.946a.724.724 0 00.51.576l8.091 2.406 2.188 2.896c.04 3.166.076 6.455.142 9.687a.714.714 0 01-.438.674c-2.335.968-4.808 2.1-7.684 3.507a.704.704 0 01-.652.005zm23.096-1.279a.725.725 0 01-.719-.714c0-3.467-.03-6.628 0-9.596a.77.77 0 00-.769-.764l-4.038.046a.765.765 0 00-.76.764c0 3.06.025 6.251.061 9.443a.713.713 0 01-.709.719l-4.14.05h-.173a.715.715 0 01-.724-.708 1979.01 1979.01 0 010-21.312v-7.107a.714.714 0 01.709-.714l4.16-.025a.706.706 0 01.719.708l.041 11.783a.76.76 0 00.765.76l3.4-.067a1.495 1.495 0 001.448-1.478V38.94a.713.713 0 01.704-.714l4.165-.025a.716.716 0 01.508.204.702.702 0 01.211.504v6.832c0 7.098.041 14.419.133 21.649a.725.725 0 01-.209.51.72.72 0 01-.51.209h-2.04l-2.233.005zm27.17 1.066a120.13 120.13 0 00-4.416-.419.714.714 0 01-.632-.51l-.423-1.53a1.489 1.489 0 00-1.387-1.085 436.126 436.126 0 00-5.777-.112.774.774 0 00-.749.545l-.464 1.565a.725.725 0 01-.714.51 251.148 251.148 0 00-4.374-.153.709.709 0 01-.663-.917c2.197-7.256 4.15-14.684 6.037-21.883.54-2.04 1.08-4.115 1.626-6.164a.713.713 0 01.688-.51h3.396a.719.719 0 01.688.51c.734 2.719 1.472 5.438 2.213 8.157 1.886 6.924 3.834 14.067 5.72 21.134a.7.7 0 01-.162.63.706.706 0 01-.607.231zm-9.535-15.123a.772.772 0 00-.739.566l-1.234 4.665a.766.766 0 00.401.884c.105.052.221.08.339.08l2.488-.061a.762.762 0 00.718-.964l-1.233-4.589a.771.771 0 00-.74-.58zm28.251 18.161c-1.494-.168-2.682-.311-4.344-.51a.717.717 0 01-.607-.54c-.943-3.896-1.83-7.444-2.88-10.988l-.153-.51-2.641.373v.54c0 2.55.061 5.155.122 7.648 0 .459.025.918.036 1.377a.72.72 0 01-.513.703.71.71 0 01-.308.02 171.073 171.073 0 00-4.079-.576.72.72 0 01-.627-.693c-.123-8.576-.153-17.274-.184-25.696v-4.773a.713.713 0 01.643-.713l7.5-.724a.745.745 0 01.377.066l8.015 3.84a.708.708 0 01.403.636l.122 12.747a.713.713 0 01-.413.653l-2.799 1.315a.766.766 0 00-.408.907c1.269 4.308 2.391 8.805 3.513 14.031a.717.717 0 01-.775.867zm-9.014-27.996l.387 8.04a.72.72 0 00.688.679.722.722 0 00.51-.2l2.417-2.334a.71.71 0 00.214-.51v-4.013a.717.717 0 00-.239-.535l-2.04-1.8a.718.718 0 00-.561-.168l-.754.097a.711.711 0 00-.622.744zm27.889 30.188a75.742 75.742 0 01-4.588-.718.707.707 0 01-.571-.55c-.148-.69-.291-1.377-.439-2.07-.729-3.53-1.483-7.175-2.901-10.55a.751.751 0 00-.703-.469.756.756 0 00-.546.23.749.749 0 00-.219.54c0 2.967.041 5.98.066 8.902l.031 2.937a.71.71 0 01-.234.532.711.711 0 01-.552.182 128.616 128.616 0 01-4.231-.48.702.702 0 01-.627-.698c-.133-11.105-.133-22.372-.133-33.283v-.683l4.874-.031a.714.714 0 01.719.709l.036 7.648a.74.74 0 00.223.54.75.75 0 00.542.22.763.763 0 00.708-.48l3.299-8.3a.724.724 0 01.642-.45l4.411-.132a.707.707 0 01.683.974l-5.741 14.424a.71.71 0 000 .56 131.963 131.963 0 016.052 19.64.72.72 0 01-.801.856z" fill="#fff"/><path d="M7.866 75.094a.209.209 0 01-.204-.204V38.94a.204.204 0 01.204-.204l4.165-.025a.204.204 0 01.204.199l.036 7.647a1.258 1.258 0 001.274 1.265 1.26 1.26 0 001.183-.8l3.299-8.301a.204.204 0 01.183-.127l4.41-.133a.2.2 0 01.174.087.19.19 0 010 .188l-5.74 14.419a1.27 1.27 0 000 .948c1.146 2.876 2.34 5.782 3.492 8.591 1.152 2.81 2.4 5.848 3.569 8.8a.2.2 0 010 .179.216.216 0 01-.159.096 499.03 499.03 0 00-4.685.485.204.204 0 01-.21-.133c-1.31-3.773-2.722-7.785-4.302-11.726a1.27 1.27 0 00-1.183-.8 1.265 1.265 0 00-1.28 1.264c.042 3.181.252 6.359.627 9.519v.06c.102 1.02.214 2.111.306 3.167a.21.21 0 01-.158.214c-1.871.449-3.222.785-5.17 1.29l-.035-.015zm19.543-3.875a.214.214 0 01-.21-.183c-1.06-10.407-1.055-20.512-1.05-31.209v-.887a.2.2 0 01.199-.204l4.166-.025a.204.204 0 01.203.204v2.712c0 9.376.046 19.074.862 28.664a.199.199 0 01-.168.214 157.5 157.5 0 00-3.972.709l-.03.005zm8.702-1.494a.204.204 0 01-.204-.189c-.632-9.131-.612-18.41-.596-27.389v-3.421a.204.204 0 01.199-.204l4.293.066a.209.209 0 01.198.204l-.03 5.675c-.03 5.778-.06 11.567-.087 17.365a2 2 0 001.927 1.994l4.589.163a.204.204 0 01.199.194l.076 4.492a.204.204 0 01-.188.204c-2.55.173-6.404.448-10.366.84l-.01.006zm15.169-1.372a.197.197 0 01-.186-.126.2.2 0 01-.013-.078V38.726a.204.204 0 01.204-.204l4.287.066a.209.209 0 01.2.204l-.128 23.739a1.28 1.28 0 001.234 1.28l5.287.168a.21.21 0 01.199.204l.066 3.65a.208.208 0 01-.199.21c-3.691.08-7.372.183-10.946.31h-.005zm32.829.607a.158.158 0 01-.087 0 222.92 222.92 0 00-7.79-3.742.2.2 0 01-.123-.184v-4.038a.204.204 0 01.204-.204l4.232.056a.204.204 0 01.204.204v.159a1.987 1.987 0 00.882 1.651l.076.051c.745.51 1.229.816 2.04 1.32a1.27 1.27 0 001.29.026 45.38 45.38 0 001.968-1.162l.627-.377-.576-4.716a1.228 1.228 0 00-.847-1.02l-9.947-3.146a.208.208 0 01-.143-.189l-.097-12.114a.213.213 0 01.102-.178l7.903-4.487a.21.21 0 01.097-.025c.035 0 .07.01.102.025l7.648 4.416a.22.22 0 01.102.178l.03 4.946a.209.209 0 01-.204.204l-4.155-.082a.21.21 0 01-.199-.204v-1.086a1.228 1.228 0 00-.647-1.08l-2.188-1.174a1.27 1.27 0 00-.576-.142c-.24 0-.476.071-.678.204l-2.279 1.53a1.218 1.218 0 00-.535 1.197l.586 3.941a1.233 1.233 0 00.862.995l7.933 2.355 1.989 2.631v.433c.03 2.978.066 6.063.132 9.106a.194.194 0 01-.122.189c-2.36.984-4.808 2.1-7.714 3.528a.297.297 0 01-.102.005zm22.769-1.356a.215.215 0 01-.204-.209c0-3.462-.03-6.628 0-9.59a1.281 1.281 0 00-1.279-1.275l-4.044.046a1.274 1.274 0 00-1.264 1.275c0 3.059.025 6.266.061 9.447a.203.203 0 01-.204.204l-4.145.051h-.163a.204.204 0 01-.204-.204c-.04-7.138-.036-14.327 0-21.301V38.94a.204.204 0 01.199-.204l4.165-.025a.204.204 0 01.204.199l.041 11.782a1.28 1.28 0 001.275 1.27l3.411-.066a2.01 2.01 0 001.947-1.989V38.94a.206.206 0 01.057-.143.198.198 0 01.142-.06l4.166-.026a.203.203 0 01.203.204v6.832c0 7.082.041 14.408.133 21.653a.166.166 0 01-.015.076.165.165 0 01-.046.062.197.197 0 01-.148.061h-4.288v.005zm27.232 1.071c-1.413-.163-2.616-.28-4.431-.424a.205.205 0 01-.184-.153c-.142-.51-.265-.963-.418-1.53a1.991 1.991 0 00-1.866-1.457c-2.32-.061-3.604-.082-5.787-.112a1.294 1.294 0 00-1.244.912l-.464 1.566a.203.203 0 01-.074.102.206.206 0 01-.119.04 256.379 256.379 0 00-4.395-.153.187.187 0 01-.158-.081.194.194 0 01-.036-.086.194.194 0 01.005-.093c2.208-7.27 4.161-14.709 6.047-21.923.54-2.04 1.083-4.094 1.626-6.164a.199.199 0 01.194-.148h3.396a.2.2 0 01.194.153l2.217 8.157c1.785 6.552 3.809 13.98 5.721 21.134a.197.197 0 01-.036.173.201.201 0 01-.158.082l-.03.005zm-9.591-15.128a1.268 1.268 0 00-1.228.949l-1.239 4.665a1.251 1.251 0 00.224 1.101 1.264 1.264 0 001.02.51l2.498-.061a1.268 1.268 0 00.989-.51 1.27 1.27 0 00.214-1.091l-1.234-4.589a1.278 1.278 0 00-1.244-.974zm28.307 18.161a295.284 295.284 0 01-4.333-.51.217.217 0 01-.114-.051.22.22 0 01-.065-.107c-.856-3.538-1.789-7.306-2.886-11.007l-.28-.938-3.513.51v.983c0 2.55.061 5.14.122 7.648l.036 1.418a.193.193 0 01-.056.143.197.197 0 01-.148.06 183.522 183.522 0 00-4.124-.576.212.212 0 01-.124-.068.213.213 0 01-.055-.13c-.122-8.571-.153-17.274-.183-25.692V38.62a.211.211 0 01.183-.204l7.531-.74a.27.27 0 01.102 0l8.014 3.84a.207.207 0 01.083.076c.019.032.03.07.03.108l.122 12.746a.202.202 0 01-.032.11.205.205 0 01-.085.078l-2.799 1.316a1.266 1.266 0 00-.684 1.53c1.27 4.323 2.386 8.769 3.503 13.995a.203.203 0 01-.041.168.196.196 0 01-.158.077l-.046-.01zm-7.607-28.842a.888.888 0 00-.163 0l-.749.097a1.237 1.237 0 00-1.061 1.274l.388 8.04a1.23 1.23 0 001.183 1.163 1.23 1.23 0 00.882-.341l2.416-2.335a1.22 1.22 0 00.373-.877v-4.013a1.229 1.229 0 00-.413-.918l-2.04-1.8a1.235 1.235 0 00-.816-.29zM171.706 73.9c-1.637-.199-2.916-.413-4.589-.708a.225.225 0 01-.163-.158 233.64 233.64 0 01-.418-1.994v-.071c-.734-3.57-1.494-7.225-2.932-10.646a1.263 1.263 0 00-1.172-.78 1.295 1.295 0 00-.908.377 1.247 1.247 0 00-.367.908c0 2.916.041 5.883.066 8.759l.031 3.06a.2.2 0 01-.061.147.209.209 0 01-.143.061 126.447 126.447 0 01-4.242-.48.2.2 0 01-.128-.064.195.195 0 01-.05-.134c-.133-11.125-.133-22.388-.133-33.278v-.173l4.369-.03a.211.211 0 01.142.058.21.21 0 01.062.14l.036 7.648a1.253 1.253 0 00.373.899 1.25 1.25 0 00.902.365 1.261 1.261 0 001.183-.8l3.298-8.3a.202.202 0 01.184-.128l4.41-.133a.197.197 0 01.173.087.185.185 0 010 .189l-5.74 14.423a1.238 1.238 0 000 .938 130.176 130.176 0 016.026 19.563c.008.03.009.061.002.091a.195.195 0 01-.038.083.2.2 0 01-.158.081h-.015z" fill="#F40F82"/></g><defs><linearGradient id="paint0_linear_33_6" x1="43.279" y1="3.944" x2="43.279" y2="36.304" gradientUnits="userSpaceOnUse"><stop stop-color="#fff"/><stop offset="1" stop-color="#0076EE"/></linearGradient><linearGradient id="paint1_linear_33_6" x1="60.393" y1="5.955" x2="60.393" y2="35.535" gradientUnits="userSpaceOnUse"><stop stop-color="#1380EF" stop-opacity="0"/><stop offset="1" stop-color="#1380EF"/></linearGradient><linearGradient id="paint2_linear_33_6" x1="77.353" y1="6.656" x2="77.353" y2="35.321" gradientUnits="userSpaceOnUse"><stop stop-color="#1380EF" stop-opacity="0"/><stop offset="1" stop-color="#1380EF"/></linearGradient><linearGradient id="paint3_linear_33_6" x1="95.305" y1="5.971" x2="95.305" y2="35.366" gradientUnits="userSpaceOnUse"><stop stop-color="#1380EF" stop-opacity="0"/><stop offset="1" stop-color="#1380EF"/></linearGradient><linearGradient id="paint4_linear_33_6" x1="112.163" y1="6.758" x2="112.163" y2="35.34" gradientUnits="userSpaceOnUse"><stop stop-color="#1380EF" stop-opacity="0"/><stop offset="1" stop-color="#1380EF"/></linearGradient><linearGradient id="paint5_linear_33_6" x1="129.464" y1="5.368" x2="129.464" y2="36.558" gradientUnits="userSpaceOnUse"><stop stop-color="#1380EF" stop-opacity="0"/><stop offset="1" stop-color="#1380EF"/></linearGradient><linearGradient id="paint6_linear_33_6" x1="41.006" y1="36.6" x2="41.006" y2="72.473" gradientUnits="userSpaceOnUse"><stop stop-color="#fff"/><stop offset="1" stop-color="#B9145A"/></linearGradient><linearGradient id="paint7_linear_33_6" x1="56.763" y1="37.364" x2="56.763" y2="69.531" gradientUnits="userSpaceOnUse"><stop stop-color="#BF2868" stop-opacity="0"/><stop offset="1" stop-color="#BF2868"/></linearGradient><linearGradient id="paint8_linear_33_6" x1="83.941" y1="70.226" x2="82.882" y2="35.524" gradientUnits="userSpaceOnUse"><stop stop-color="#CB4F83"/><stop offset="1" stop-color="#CB4F83" stop-opacity="0"/></linearGradient><linearGradient id="paint9_linear_33_6" x1="103.388" y1="37.569" x2="103.388" y2="68.741" gradientUnits="userSpaceOnUse"><stop stop-color="#C02B6A" stop-opacity="0"/><stop offset="1" stop-color="#C02B6A"/></linearGradient><linearGradient id="paint10_linear_33_6" x1="124.645" y1="37.874" x2="124.645" y2="70.027" gradientUnits="userSpaceOnUse"><stop stop-color="#C02B6A" stop-opacity="0"/><stop offset="1" stop-color="#C02B6A"/></linearGradient><linearGradient id="paint11_linear_33_6" x1="145.22" y1="36.487" x2="145.22" y2="72.999" gradientUnits="userSpaceOnUse"><stop stop-color="#C02B6A" stop-opacity="0"/><stop offset="1" stop-color="#C02B6A"/></linearGradient><linearGradient id="paint12_linear_33_6" x1="170.433" y1="74.067" x2="166.592" y2="38.04" gradientUnits="userSpaceOnUse"><stop stop-color="#C02C6B"/><stop offset="1" stop-color="#C02C6B" stop-opacity="0"/></linearGradient><linearGradient id="paint13_linear_33_6" x1="16.169" y1="37.395" x2="16.169" y2="76.45" gradientUnits="userSpaceOnUse"><stop stop-color="#BF2868" stop-opacity="0"/><stop offset="1" stop-color="#BF2868"/></linearGradient><linearGradient id="paint14_linear_33_6" x1="28.937" y1="37.686" x2="28.937" y2="72.468" gradientUnits="userSpaceOnUse"><stop stop-color="#BF2868" stop-opacity="0"/><stop offset="1" stop-color="#BF2868"/></linearGradient><filter id="filter0_d_33_6" x=".232" y=".821" width="180.596" height="85.045" filterUnits="userSpaceOnUse" color-interpolation-filters="sRGB"><feFlood flood-opacity="0" result="BackgroundImageFix"/><feColorMatrix in="SourceAlpha" values="0 0 0 0 0 0 0 0 0 0 0 0 0 0 0 0 0 0 127 0" result="hardAlpha"/><feOffset dx=".53" dy="2.119"/><feGaussianBlur stdDeviation="2.649"/><feComposite in2="hardAlpha" operator="out"/><feColorMatrix values="0 0 0 0 0.588655 0 0 0 0 0.694749 0 0 0 0 0.782682 0 0 0 1 0"/><feBlend mode="multiply" in2="BackgroundImageFix" result="effect1_dropShadow_33_6"/><feBlend in="SourceGraphic" in2="effect1_dropShadow_33_6" result="shape"/></filter></defs></svg>